<svg width="1333" height="2677" viewBox="0 0 1333 2677" fill="none" xmlns="http://www.w3.org/2000/svg">
<path d="M1330.99 2C1330.99 67.1449 1332.3 132.113 1300.61 191.384C1262.01 263.603 1204.1 308.576 1137.18 351.868C1059.91 401.858 983.261 447.397 900.04 486.975C783.344 542.472 661.646 585.973 544.445 640.174C448.877 684.37 339.52 736.146 262.324 809.821C217.376 852.719 186.983 947.621 237.126 998.501C260.407 1022.12 297.716 1029.32 329.204 1032.81C392.312 1039.8 460.859 1036.73 520.896 1014.71C614.07 980.544 685.122 907.96 766.751 854.465C831.528 812.014 911.04 770.444 985.995 749.669C1014.03 741.9 1061.24 743.03 1078.07 770.581C1099.63 805.851 1111.28 867.62 1088.91 904.278C1051.78 965.105 949.895 991.959 888.265 1015.18C792.549 1051.25 690.499 1067.03 593.428 1098.36C500.969 1128.21 421.342 1173.42 344.511 1231.82C175.845 1360.05 52.919 1547.64 2.81068 1752.98C-0.907148 1768.22 8.56078 1769.44 23.0631 1768.96C48.7639 1768.12 78.17 1761.99 102.189 1755.8C205.391 1729.21 305.547 1691.25 407.153 1659.47C593.17 1601.28 784.892 1547.46 979.166 1525.06C1053.02 1516.55 1129.05 1525.01 1200.53 1544.57C1231.75 1553.11 1285.49 1565.5 1300.61 1599.31C1314.05 1629.36 1300 1671.96 1281.07 1696.12C1250.61 1735.01 1203.75 1755.19 1159.08 1772.49C1096.5 1796.72 1033.35 1817.56 967.862 1832.4C875.873 1853.25 782.945 1869.72 691.393 1892.56C673.84 1896.93 565.192 1931.48 619.096 1953.65C718.434 1994.5 833.707 2023.89 940.545 2034.48C978.736 2038.26 1092.07 2020.44 1054.05 2015.21C1000.16 2007.79 944.733 2001.24 891.562 2016.15C801.86 2041.3 678.147 2093.44 691.628 2205.53C694.866 2232.46 722.318 2257.38 751.208 2251.12C786.138 2243.54 768.799 2207.17 746.027 2198.01C708.699 2183.01 584.95 2166.09 584.95 2231.14C584.95 2379.28 587.906 2531.45 546.8 2675" stroke="#373225" stroke-width="3" stroke-linecap="round"/>
</svg>
