<svg width="826" height="1417" viewBox="0 0 826 1417" fill="none" xmlns="http://www.w3.org/2000/svg">
<path d="M363.449 4C351.015 34.8341 350.921 65.3607 341.977 96.7377C335.927 117.963 325.321 117.418 305.396 125.213C255.337 144.798 198.172 184.491 167.619 226.994C151.27 249.739 141.743 276.173 142.569 304.147C143.51 336.035 175.679 333.112 201.417 332.238C262.037 330.179 322.22 316.327 381.541 305.109C414.958 298.79 483.45 295.261 501.623 260.087C530.113 204.944 435.091 234.599 417.724 242.578C367.627 265.595 323.145 300.038 279.749 333.007C226.374 373.559 188.546 427.845 136.804 469.613C130.546 474.664 -27.2633 570.431 9.56399 586.978C28.4644 595.47 64.6232 587.056 82.3291 584.862C136.928 578.094 191.124 568.403 244.957 557.348C415.486 522.328 582.031 479.494 726.082 379.953C773.625 347.101 840.676 278.033 817.137 212.949C804.711 178.589 731.785 195.318 709.381 202.174C606.318 233.714 522.522 321.558 456.89 400.733C414.861 451.435 333.026 560.612 379.553 629.884C428.262 702.405 578.284 629.678 559.676 550.229C550.314 510.259 503.434 507.297 472 521.754C439.311 536.788 403.483 560.865 384.324 591.403C378.623 600.49 384.523 619.829 384.523 628.922C384.523 757.943 381.342 886.987 381.342 1016.03C381.342 1149.69 381.342 1283.34 381.342 1417" stroke="white" stroke-opacity="0.21" stroke-width="7" stroke-linecap="round"/>
</svg>
